<svg xmlns="http://www.w3.org/2000/svg" width="180" height="145" viewBox="0 0 180 145">
  <title>Yaw logo</title>
  <path fill="#C00" d="M90 27.927c-31.18 0-56.454 7.208-56.454 19.505 0 11.89 23.605 21.573 53.314 22.222v6.983l24.29-13.143-24.294-13.14v5.758c-23.62-.31-42.46-6.076-42.46-13.154 0-7.283 19.9-13.19 44.446-13.19s44.45 5.897 44.45 13.187c0 4.28-6.88 8.087-17.546 10.497l16.947 8.553c8.574-3.906 13.76-9.004 13.76-14.58 0-12.292-25.273-19.5-56.453-19.5v.002z" />
  <path d="M62.465 105.288l-7.788-12.776h6.446l4.2 7.438 4.23-7.438h6.33l-7.76 12.688v7.73h-5.66v-7.642zM81.483 92.366h5.455l8.692 20.564h-6.067l-1.458-3.675H80.2l-1.46 3.675h-5.92l8.663-20.564zm4.958 12.485l-2.274-5.774-2.304 5.775h4.58zM93.617 92.512h5.98l3.558 11.814 3.938-11.872h4.87l3.938 11.872 3.56-11.814h5.863l-6.825 20.564h-4.93l-4.083-11.755-4.113 11.756h-4.93l-6.825-20.564z" />
</svg>
